<?xml version="1.0" encoding="UTF-8" standalone="no"?>
<!-- Created with Inkscape (http://www.inkscape.org/) -->

<svg
   width="512"
   height="512"
   viewBox="0 0 512 512"
   version="1.1"
   id="svg1"
   inkscape:version="1.4.2 (f4327f4, 2025-05-13)"
   sodipodi:docname="python.svg"
   xmlns:inkscape="http://www.inkscape.org/namespaces/inkscape"
   xmlns:sodipodi="http://sodipodi.sourceforge.net/DTD/sodipodi-0.dtd"
   xmlns="http://www.w3.org/2000/svg"
   xmlns:svg="http://www.w3.org/2000/svg">
  <sodipodi:namedview
     id="namedview1"
     pagecolor="#ffffff"
     bordercolor="#000000"
     borderopacity="0.25"
     inkscape:showpageshadow="2"
     inkscape:pageopacity="0.0"
     inkscape:pagecheckerboard="0"
     inkscape:deskcolor="#d1d1d1"
     inkscape:document-units="px"
     inkscape:zoom="1.1145218"
     inkscape:cx="168.23359"
     inkscape:cy="278.59482"
     inkscape:window-width="1920"
     inkscape:window-height="1009"
     inkscape:window-x="-8"
     inkscape:window-y="-8"
     inkscape:window-maximized="1"
     inkscape:current-layer="layer1" />
  <defs
     id="defs1">
    <rect
       x="31.403603"
       y="80.752122"
       width="453.10913"
       height="404.65785"
       id="rect5" />
    <rect
       x="-343.64514"
       y="-71.779664"
       width="1101.8178"
       height="685.49579"
       id="rect3" />
    <rect
       x="-55.180614"
       y="-15.701801"
       width="369.66528"
       height="292.95074"
       id="rect2" />
    <rect
       x="-43.516418"
       y="-22.879766"
       width="389.8533"
       height="325.25159"
       id="rect1" />
    <rect
       x="-43.516418"
       y="-22.879766"
       width="389.8533"
       height="325.25159"
       id="rect1-4" />
    <rect
       x="-43.516418"
       y="-22.879766"
       width="389.8533"
       height="325.25159"
       id="rect1-5" />
    <rect
       x="-43.516418"
       y="-22.879766"
       width="389.8533"
       height="325.25159"
       id="rect1-4-7" />
    <rect
       x="-55.180614"
       y="-15.701801"
       width="369.66528"
       height="292.95074"
       id="rect2-4" />
    <rect
       x="-343.64514"
       y="-71.779663"
       width="1101.8177"
       height="685.49579"
       id="rect3-4" />
  </defs>
  <g
     inkscape:label="Слой 1"
     inkscape:groupmode="layer"
     id="layer1">
    <path
       d="m 328.00781,7.1191406 c -4.81382,0.1248551 -9.06247,2.1216803 -12.74609,5.9921874 l -8.26563,8.810547 c 0,0 0.002,0 0.002,0 1.51469,-0.01545 3.08344,0.151996 4.70898,0.503906 6.92074,1.498261 10.38086,4.495452 10.38086,8.990235 v 17.478515 37.957031 48.193358 47.94336 37.95703 17.48047 c 0,4.49478 2.45569,8.65549 7.36719,12.48438 5.13474,3.66241 10.82908,5.49414 17.08008,5.49414 h 17.74804 28.79883 26.45508 11.38672 c 5.35799,0 9.04153,1.83172 11.05078,5.49414 2.00925,3.66241 1.44971,7.15686 -1.67578,10.48633 L 217.33008,493.75195 c 4.61213,-0.15966 8.56806,-1.97284 11.86914,-5.4414 L 461.60156,257.57812 c 3.1255,-3.32946 3.68503,-6.82586 1.67578,-10.48828 -2.00924,-3.66241 -5.69278,-5.49414 -11.05078,-5.49414 h -11.38672 -26.45507 -28.79883 -17.74805 c -6.25099,0 -11.94338,-1.82977 -17.07812,-5.49218 -4.9115,-3.82889 -7.36719,-7.99155 -7.36719,-12.48633 V 206.13672 168.18164 120.23633 72.042969 34.087891 16.607422 c 0,-4.494783 -3.46207,-7.4919736 -10.38281,-8.9902345 -1.73019,-0.3745652 -3.39735,-0.5396652 -5.00196,-0.4980469 z"
       style="-inkscape-font-specification:sans-serif;white-space:pre;shape-inside:url(#rect3);display:inline;fill:#ffffff"
       id="path4" />
    <path
       d="m 217.33008,493.75195 c -2.25,0.0779 -4.65673,-0.23767 -7.21875,-0.94726 -7.59049,-1.99768 -11.38477,-6.16034 -11.38477,-12.48633 V 286.54492 c 0,-5.99304 -4.01965,-8.99023 -12.05664,-8.99023 H 90.226562 c -5.357994,0 -9.154221,-1.49762 -11.386718,-4.49414 -2.009248,-3.163 -1.449716,-6.41077 1.675781,-9.74024 L 306.99609,21.921875 c -4.9333,0.05085 -9.27972,2.050032 -13.03711,5.998047 L 59.212891,278.12891 c -3.125497,3.32946 -3.68503,6.57528 -1.675782,9.73828 2.232498,2.99652 6.028725,4.49414 11.386719,4.49414 h 96.443362 c 8.03699,0 12.05664,2.99719 12.05664,8.99023 v 193.77539 c 0,6.32599 3.79427,10.48865 11.38476,12.48633 7.81375,2.16416 14.1764,0.66458 19.08789,-4.49609 z"
       style="-inkscape-font-specification:sans-serif;white-space:pre;shape-inside:url(#rect3-4);display:inline;fill:#008000"
       id="path5" />
    <path
       d="M 217.33008,493.75195 440.29883,272.38477 c 3.12549,-3.32947 3.68503,-6.82392 1.67578,-10.48633 -2.00925,-3.66242 -5.69279,-5.49414 -11.05078,-5.49414 H 419.53711 393.08203 364.2832 346.53516 c -6.251,0 -11.94534,-1.83173 -17.08008,-5.49414 -4.9115,-3.82889 -7.36719,-7.9896 -7.36719,-12.48438 V 220.94531 182.98828 135.04492 86.851562 48.894531 31.416016 c 0,-4.494783 -3.46012,-7.491974 -10.38086,-8.990235 -1.62554,-0.35191 -3.19429,-0.519357 -4.70898,-0.503906 0,0 -0.002,0 -0.002,0 L 80.515625,263.32031 c -3.125497,3.32947 -3.685029,6.57724 -1.675781,9.74024 2.232497,2.99652 6.028724,4.49414 11.386718,4.49414 h 96.443358 c 8.03699,0 12.05664,2.99719 12.05664,8.99023 v 193.77344 c 0,6.32599 3.79428,10.48865 11.38477,12.48633 2.56202,0.70959 4.96875,1.02516 7.21875,0.94726 z"
       style="-inkscape-font-specification:sans-serif;white-space:pre;shape-inside:url(#rect3-4);display:inline;fill:#008000"
       id="path3" />
    <path
       d="m 355.38672,211.20703 c -2.65745,0 -4.91713,0.92473 -6.77735,2.77149 -1.86021,1.84676 -2.78906,4.08833 -2.78906,6.72656 v 9.63086 c 0,5.18852 0.75192,10.24522 2.25781,15.16992 -1.06298,-1.05529 -2.12647,-2.19851 -3.18945,-3.42969 -0.17716,-0.17588 -0.30985,-0.35341 -0.39844,-0.5293 l -0.53125,-0.52734 c -0.79723,-1.05529 -1.86072,-1.66982 -3.18945,-1.8457 -1.32873,-0.17588 -2.52296,0.17528 -3.58594,1.05469 -0.9744,0.79146 -1.55135,1.8469 -1.72851,3.16601 -0.0886,1.31912 0.26526,2.50526 1.0625,3.56055 3.36611,4.30911 7.22004,8.04701 11.56054,11.21289 h -7.70703 c -3.01178,0 -4.65027,1.45146 -4.91601,4.35351 -10.80698,-3.78146 -21.92256,-5.67187 -33.34961,-5.67187 -13.81876,0 -26.79789,2.59468 -38.9336,7.7832 -12.04712,5.10058 -22.63193,12.22328 -31.75585,21.36914 -9.12393,9.05792 -16.29907,19.56737 -21.5254,31.52735 -5.13774,11.95997 -7.70703,24.79878 -7.70703,38.51757 v 3.42969 c 0,18.90731 3.76548,36.62726 11.29493,53.16016 7.61803,16.44496 17.98169,30.91082 31.09179,43.39844 13.19869,12.48761 28.25862,22.24987 45.17774,29.28515 17.0077,7.03528 34.94458,10.55274 53.8125,10.55274 h 142.70507 c 2.65746,0 4.91713,-0.92277 6.77735,-2.76953 1.86022,-1.84676 2.78906,-4.09029 2.78906,-6.72852 v -1.45117 c 0,-4.74881 -1.01731,-9.18904 -3.05469,-13.32227 -2.03738,-4.13322 -4.56243,-7.87113 -7.57422,-11.21289 -3.01178,-3.25381 -6.46568,-6.28745 -10.36328,-9.10156 -3.80901,-2.81411 -7.83987,-5.36393 -12.09179,-7.65039 -6.99796,-3.78146 -14.48272,-6.94776 -22.45508,-9.49805 9.56683,-3.69352 18.02467,-9.0136 25.37695,-15.96094 7.35229,-7.03527 13.1101,-15.21536 17.27344,-24.53711 4.16334,-9.40968 6.24609,-19.47823 6.24609,-30.20703 V 249.19922 c 0,-7.03528 -1.72695,-13.41274 -5.18164,-19.12891 -3.45469,-5.8041 -8.10673,-10.37699 -13.95312,-13.71875 -5.75782,-3.4297 -12.13486,-5.14453 -19.13282,-5.14453 z m 9.5664,18.99609 h 85.96875 c 5.22633,0 9.69949,1.8475 13.41993,5.54102 3.80901,3.69352 5.71289,8.17862 5.71289,13.45508 v 27.96484 h -0.53125 c -2.65746,0 -4.95941,0.96764 -6.90821,2.90235 -1.86021,1.84676 -2.79101,4.04541 -2.79101,6.5957 0,2.63823 0.9308,4.92467 2.79101,6.85937 1.9488,1.84676 4.25075,2.76954 6.90821,2.76954 h 0.53125 v 18.99414 h -0.53125 c -2.65746,0 -4.95941,0.92472 -6.90821,2.77148 -1.86021,1.84676 -2.79101,4.08833 -2.79101,6.72656 0,2.63823 0.9308,4.88176 2.79101,6.72852 1.9488,1.84676 4.25075,2.76953 6.90821,2.76953 h 0.53125 v 21.23828 h -0.53125 c -2.65746,0 -4.95941,0.96764 -6.90821,2.90234 -1.86021,1.84677 -2.79101,4.04542 -2.79101,6.59571 0,2.55029 0.88657,4.74699 2.6582,6.59375 1.77164,1.84676 3.9409,2.8144 6.50977,2.90234 -1.77164,8.70616 -5.35823,16.53313 -10.76172,23.48047 -5.40349,6.8594 -12.0921,12.31214 -20.06445,16.35742 -7.88378,4.04529 -16.47626,6.06836 -25.77735,6.06836 -10.45265,0 -20.02016,-2.54981 -28.70117,-7.65039 -8.59243,-5.10058 -15.45601,-11.87212 -20.59375,-20.31445 -5.13774,-8.53028 -7.70703,-17.94138 -7.70703,-28.23047 v -6.5957 c 0,-9.67351 -2.39237,-18.42326 -7.17578,-26.25 -4.69484,-7.91469 -11.02764,-14.20241 -19,-18.86329 -7.88378,-4.74881 -16.65318,-7.12304 -26.3086,-7.12304 -9.74399,0 -18.60186,2.37423 -26.57422,7.12304 -7.88377,4.66088 -14.21853,10.9486 -19.00195,18.86329 -4.69483,7.82674 -7.04101,16.57649 -7.04101,26.25 v 2.11132 c 0,12.39968 2.5231,23.96456 7.57226,34.69336 5.04916,10.64086 12.04738,19.96222 20.99414,27.96485 9.03534,8.00263 19.48747,14.24548 31.35742,18.73047 11.86996,4.48499 24.62599,6.72851 38.26758,6.72851 h 62.05274 c 5.58065,0 12.31153,1.09835 20.19531,3.29688 7.97236,2.19852 15.59176,5.27703 22.85547,9.23437 7.52945,3.95735 13.33149,8.22199 17.40625,12.79492 1.15156,1.23118 2.12464,2.46219 2.92187,3.69336 H 343.56055 c -15.76756,0 -30.78131,-2.85805 -45.04297,-8.57422 -14.17308,-5.62822 -26.88488,-13.45519 -38.13477,-23.48046 -11.1613,-10.11322 -20.19609,-21.80881 -27.10547,-35.0879 -6.82079,-13.36702 -10.71896,-27.70022 -11.69336,-43.00195 2.65746,0 4.91518,-0.92472 6.77539,-2.77148 1.86022,-1.84676 2.79102,-4.08834 2.79102,-6.72657 0,-2.55028 -0.9308,-4.74894 -2.79102,-6.5957 -1.86021,-1.84676 -4.0737,-2.8144 -6.64257,-2.90234 0.79723,-7.73881 2.70111,-15.21462 5.71289,-22.42578 l 0.13281,0.13281 c 2.30313,1.31911 4.73972,1.62736 7.30859,0.92383 2.56887,-0.70353 4.51698,-2.19987 5.84571,-4.48633 1.32872,-2.19853 1.64029,-4.57276 0.93164,-7.12305 -0.70866,-2.55029 -2.21641,-4.48362 -4.51953,-5.80273 l -0.26563,-0.13281 c 4.60625,-6.33175 10.09868,-11.87229 16.47656,-16.6211 l 0.26563,0.52735 c 1.32873,2.28646 3.27878,3.7828 5.84765,4.48632 2.56888,0.61559 5.00352,0.26248 7.30665,-1.05664 2.30312,-1.31911 3.76469,-3.25244 4.38476,-5.80273 0.70866,-2.55029 0.39904,-4.9694 -0.92969,-7.25586 l -0.26562,-0.66016 c 7.2637,-3.07793 14.83692,-5.09905 22.7207,-6.0664 v 0.79101 c 0,2.63823 0.9308,4.8798 2.79102,6.72656 1.86021,1.84677 4.11989,2.77149 6.77734,2.77149 2.65745,0 4.91517,-0.92472 6.77539,-2.77149 1.86022,-1.84676 2.79102,-4.08833 2.79102,-6.72656 v -0.66015 c 13.37584,1.58293 25.42223,6.1129 36.14062,13.58789 10.7184,7.38704 19.17819,16.8391 25.37891,28.35937 6.2893,11.43233 9.43359,23.96485 9.43359,37.5957 v 7.78321 c 0,7.56292 2.65775,14.02622 7.97266,19.39062 5.40349,5.27646 11.91517,7.91407 19.5332,7.91407 h 2.65625 c 7.88378,0 14.61662,-2.77027 20.19727,-8.31055 5.66923,-5.62822 8.5039,-12.35489 8.5039,-20.18164 v -84.82031 c 0,-2.55029 -0.93079,-4.74699 -2.79101,-6.59375 -1.86022,-1.93471 -4.11794,-2.90235 -6.77539,-2.90235 h -24.84766 c -7.44087,0 -14.39486,-1.7597 -20.86133,-5.27734 -6.37788,-3.51764 -11.56069,-8.17832 -15.54687,-13.98242 -3.8976,-5.80411 -5.8457,-12.04696 -5.84571,-18.73047 z m 52.35157,8.97071 c 1.41731,0 2.61349,0.52674 3.58789,1.58203 1.06298,0.96735 1.59375,2.15544 1.59375,3.5625 v 8.96875 c 0,1.495 -0.53077,2.72601 -1.59375,3.69336 -0.9744,0.96735 -2.17058,1.45117 -3.58789,1.45117 -1.41731,0 -2.65772,-0.48382 -3.72071,-1.45117 -0.9744,-1.05529 -1.46093,-2.28631 -1.46093,-3.69336 v -8.96875 c 0,-1.40706 0.48653,-2.59515 1.46093,-3.5625 1.06299,-1.05529 2.3034,-1.58203 3.72071,-1.58203 z m -69.75782,28.49219 h 13.95118 c 5.84639,6.15586 12.80038,10.99212 20.86132,14.50976 8.06095,3.51764 16.34381,5.27734 24.84766,5.27734 h 15.2793 v 75.18946 c 0,2.55029 -0.97308,4.79186 -2.92188,6.72656 -1.86021,1.84676 -4.07566,2.77148 -6.64453,2.77148 h -2.65625 c -2.30312,10e-6 -4.25318,-0.79206 -5.84765,-2.375 -1.59448,-1.67087 -2.39063,-3.64908 -2.39063,-5.93554 v -7.78321 c 0,-12.83938 -2.3039,-24.931 -6.91016,-36.27539 -4.60625,-11.43232 -11.02752,-21.59061 -19.26562,-30.47265 -8.14952,-8.88204 -17.58434,-16.09253 -28.30274,-21.63281 z"
       style="-inkscape-font-specification:sans-serif;white-space:pre;shape-inside:url(#rect5)"
       id="path6" />
  </g>
  <script
     id="mesh_polyfill"
     type="text/javascript">
!function(){const t=&quot;http://www.w3.org/2000/svg&quot;,e=&quot;http://www.w3.org/1999/xlink&quot;,s=&quot;http://www.w3.org/1999/xhtml&quot;,r=2;if(document.createElementNS(t,&quot;meshgradient&quot;).x)return;const n=(t,e,s,r)=&gt;{let n=new x(.5*(e.x+s.x),.5*(e.y+s.y)),o=new x(.5*(t.x+e.x),.5*(t.y+e.y)),i=new x(.5*(s.x+r.x),.5*(s.y+r.y)),a=new x(.5*(n.x+o.x),.5*(n.y+o.y)),h=new x(.5*(n.x+i.x),.5*(n.y+i.y)),l=new x(.5*(a.x+h.x),.5*(a.y+h.y));return[[t,o,a,l],[l,h,i,r]]},o=t=&gt;{let e=t[0].distSquared(t[1]),s=t[2].distSquared(t[3]),r=.25*t[0].distSquared(t[2]),n=.25*t[1].distSquared(t[3]),o=e&gt;s?e:s,i=r&gt;n?r:n;return 18*(o&gt;i?o:i)},i=(t,e)=&gt;Math.sqrt(t.distSquared(e)),a=(t,e)=&gt;t.scale(2/3).add(e.scale(1/3)),h=t=&gt;{let e,s,r,n,o,i,a,h=new g;return t.match(/(\w+\(\s*[^)]+\))+/g).forEach(t=&gt;{let l=t.match(/[\w.-]+/g),d=l.shift();switch(d){case&quot;translate&quot;:2===l.length?e=new g(1,0,0,1,l[0],l[1]):(console.error(&quot;mesh.js: translate does not have 2 arguments!&quot;),e=new g(1,0,0,1,0,0)),h=h.append(e);break;case&quot;scale&quot;:1===l.length?s=new g(l[0],0,0,l[0],0,0):2===l.length?s=new g(l[0],0,0,l[1],0,0):(console.error(&quot;mesh.js: scale does not have 1 or 2 arguments!&quot;),s=new g(1,0,0,1,0,0)),h=h.append(s);break;case&quot;rotate&quot;:if(3===l.length&amp;&amp;(e=new g(1,0,0,1,l[1],l[2]),h=h.append(e)),l[0]){r=l[0]*Math.PI/180;let t=Math.cos(r),e=Math.sin(r);Math.abs(t)&lt;1e-16&amp;&amp;(t=0),Math.abs(e)&lt;1e-16&amp;&amp;(e=0),a=new g(t,e,-e,t,0,0),h=h.append(a)}else console.error(&quot;math.js: No argument to rotate transform!&quot;);3===l.length&amp;&amp;(e=new g(1,0,0,1,-l[1],-l[2]),h=h.append(e));break;case&quot;skewX&quot;:l[0]?(r=l[0]*Math.PI/180,n=Math.tan(r),o=new g(1,0,n,1,0,0),h=h.append(o)):console.error(&quot;math.js: No argument to skewX transform!&quot;);break;case&quot;skewY&quot;:l[0]?(r=l[0]*Math.PI/180,n=Math.tan(r),i=new g(1,n,0,1,0,0),h=h.append(i)):console.error(&quot;math.js: No argument to skewY transform!&quot;);break;case&quot;matrix&quot;:6===l.length?h=h.append(new g(...l)):console.error(&quot;math.js: Incorrect number of arguments for matrix!&quot;);break;default:console.error(&quot;mesh.js: Unhandled transform type: &quot;+d)}}),h},l=t=&gt;{let e=[],s=t.split(/[ ,]+/);for(let t=0,r=s.length-1;t&lt;r;t+=2)e.push(new x(parseFloat(s[t]),parseFloat(s[t+1])));return e},d=(t,e)=&gt;{for(let s in e)t.setAttribute(s,e[s])},c=(t,e,s,r,n)=&gt;{let o,i,a=[0,0,0,0];for(let h=0;h&lt;3;++h)e[h]&lt;t[h]&amp;&amp;e[h]&lt;s[h]||t[h]&lt;e[h]&amp;&amp;s[h]&lt;e[h]?a[h]=0:(a[h]=.5*((e[h]-t[h])/r+(s[h]-e[h])/n),o=Math.abs(3*(e[h]-t[h])/r),i=Math.abs(3*(s[h]-e[h])/n),a[h]&gt;o?a[h]=o:a[h]&gt;i&amp;&amp;(a[h]=i));return a},u=[[1,0,0,0,0,0,0,0,0,0,0,0,0,0,0,0],[0,0,0,0,1,0,0,0,0,0,0,0,0,0,0,0],[-3,3,0,0,-2,-1,0,0,0,0,0,0,0,0,0,0],[2,-2,0,0,1,1,0,0,0,0,0,0,0,0,0,0],[0,0,0,0,0,0,0,0,1,0,0,0,0,0,0,0],[0,0,0,0,0,0,0,0,0,0,0,0,1,0,0,0],[0,0,0,0,0,0,0,0,-3,3,0,0,-2,-1,0,0],[0,0,0,0,0,0,0,0,2,-2,0,0,1,1,0,0],[-3,0,3,0,0,0,0,0,-2,0,-1,0,0,0,0,0],[0,0,0,0,-3,0,3,0,0,0,0,0,-2,0,-1,0],[9,-9,-9,9,6,3,-6,-3,6,-6,3,-3,4,2,2,1],[-6,6,6,-6,-3,-3,3,3,-4,4,-2,2,-2,-2,-1,-1],[2,0,-2,0,0,0,0,0,1,0,1,0,0,0,0,0],[0,0,0,0,2,0,-2,0,0,0,0,0,1,0,1,0],[-6,6,6,-6,-4,-2,4,2,-3,3,-3,3,-2,-1,-2,-1],[4,-4,-4,4,2,2,-2,-2,2,-2,2,-2,1,1,1,1]],f=t=&gt;{let e=[];for(let s=0;s&lt;16;++s){e[s]=0;for(let r=0;r&lt;16;++r)e[s]+=u[s][r]*t[r]}return e},p=(t,e,s)=&gt;{const r=e*e,n=s*s,o=e*e*e,i=s*s*s;return t[0]+t[1]*e+t[2]*r+t[3]*o+t[4]*s+t[5]*s*e+t[6]*s*r+t[7]*s*o+t[8]*n+t[9]*n*e+t[10]*n*r+t[11]*n*o+t[12]*i+t[13]*i*e+t[14]*i*r+t[15]*i*o},y=t=&gt;{let e=[],s=[],r=[];for(let s=0;s&lt;4;++s)e[s]=[],e[s][0]=n(t[0][s],t[1][s],t[2][s],t[3][s]),e[s][1]=[],e[s][1].push(...n(...e[s][0][0])),e[s][1].push(...n(...e[s][0][1])),e[s][2]=[],e[s][2].push(...n(...e[s][1][0])),e[s][2].push(...n(...e[s][1][1])),e[s][2].push(...n(...e[s][1][2])),e[s][2].push(...n(...e[s][1][3]));for(let t=0;t&lt;8;++t){s[t]=[];for(let r=0;r&lt;4;++r)s[t][r]=[],s[t][r][0]=n(e[0][2][t][r],e[1][2][t][r],e[2][2][t][r],e[3][2][t][r]),s[t][r][1]=[],s[t][r][1].push(...n(...s[t][r][0][0])),s[t][r][1].push(...n(...s[t][r][0][1])),s[t][r][2]=[],s[t][r][2].push(...n(...s[t][r][1][0])),s[t][r][2].push(...n(...s[t][r][1][1])),s[t][r][2].push(...n(...s[t][r][1][2])),s[t][r][2].push(...n(...s[t][r][1][3]))}for(let t=0;t&lt;8;++t){r[t]=[];for(let e=0;e&lt;8;++e)r[t][e]=[],r[t][e][0]=s[t][0][2][e],r[t][e][1]=s[t][1][2][e],r[t][e][2]=s[t][2][2][e],r[t][e][3]=s[t][3][2][e]}return r};class x{constructor(t,e){this.x=t||0,this.y=e||0}toString(){return`(x=${this.x}, y=${this.y})`}clone(){return new x(this.x,this.y)}add(t){return new x(this.x+t.x,this.y+t.y)}scale(t){return void 0===t.x?new x(this.x*t,this.y*t):new x(this.x*t.x,this.y*t.y)}distSquared(t){let e=this.x-t.x,s=this.y-t.y;return e*e+s*s}transform(t){let e=this.x*t.a+this.y*t.c+t.e,s=this.x*t.b+this.y*t.d+t.f;return new x(e,s)}}class g{constructor(t,e,s,r,n,o){void 0===t?(this.a=1,this.b=0,this.c=0,this.d=1,this.e=0,this.f=0):(this.a=t,this.b=e,this.c=s,this.d=r,this.e=n,this.f=o)}toString(){return`affine: ${this.a} ${this.c} ${this.e} \n       ${this.b} ${this.d} ${this.f}`}append(t){t instanceof g||console.error(&quot;mesh.js: argument to Affine.append is not affine!&quot;);let e=this.a*t.a+this.c*t.b,s=this.b*t.a+this.d*t.b,r=this.a*t.c+this.c*t.d,n=this.b*t.c+this.d*t.d,o=this.a*t.e+this.c*t.f+this.e,i=this.b*t.e+this.d*t.f+this.f;return new g(e,s,r,n,o,i)}}class w{constructor(t,e){this.nodes=t,this.colors=e}paintCurve(t,e){if(o(this.nodes)&gt;r){const s=n(...this.nodes);let r=[[],[]],o=[[],[]];for(let t=0;t&lt;4;++t)r[0][t]=this.colors[0][t],r[1][t]=(this.colors[0][t]+this.colors[1][t])/2,o[0][t]=r[1][t],o[1][t]=this.colors[1][t];let i=new w(s[0],r),a=new w(s[1],o);i.paintCurve(t,e),a.paintCurve(t,e)}else{let s=Math.round(this.nodes[0].x);if(s&gt;=0&amp;&amp;s&lt;e){let r=4*(~~this.nodes[0].y*e+s);t[r]=Math.round(this.colors[0][0]),t[r+1]=Math.round(this.colors[0][1]),t[r+2]=Math.round(this.colors[0][2]),t[r+3]=Math.round(this.colors[0][3])}}}}class m{constructor(t,e){this.nodes=t,this.colors=e}split(){let t=[[],[],[],[]],e=[[],[],[],[]],s=[[[],[]],[[],[]]],r=[[[],[]],[[],[]]];for(let s=0;s&lt;4;++s){const r=n(this.nodes[0][s],this.nodes[1][s],this.nodes[2][s],this.nodes[3][s]);t[0][s]=r[0][0],t[1][s]=r[0][1],t[2][s]=r[0][2],t[3][s]=r[0][3],e[0][s]=r[1][0],e[1][s]=r[1][1],e[2][s]=r[1][2],e[3][s]=r[1][3]}for(let t=0;t&lt;4;++t)s[0][0][t]=this.colors[0][0][t],s[0][1][t]=this.colors[0][1][t],s[1][0][t]=(this.colors[0][0][t]+this.colors[1][0][t])/2,s[1][1][t]=(this.colors[0][1][t]+this.colors[1][1][t])/2,r[0][0][t]=s[1][0][t],r[0][1][t]=s[1][1][t],r[1][0][t]=this.colors[1][0][t],r[1][1][t]=this.colors[1][1][t];return[new m(t,s),new m(e,r)]}paint(t,e){let s,n=!1;for(let t=0;t&lt;4;++t)if((s=o([this.nodes[0][t],this.nodes[1][t],this.nodes[2][t],this.nodes[3][t]]))&gt;r){n=!0;break}if(n){let s=this.split();s[0].paint(t,e),s[1].paint(t,e)}else{new w([...this.nodes[0]],[...this.colors[0]]).paintCurve(t,e)}}}class b{constructor(t){this.readMesh(t),this.type=t.getAttribute(&quot;type&quot;)||&quot;bilinear&quot;}readMesh(t){let e=[[]],s=[[]],r=Number(t.getAttribute(&quot;x&quot;)),n=Number(t.getAttribute(&quot;y&quot;));e[0][0]=new x(r,n);let o=t.children;for(let t=0,r=o.length;t&lt;r;++t){e[3*t+1]=[],e[3*t+2]=[],e[3*t+3]=[],s[t+1]=[];let r=o[t].children;for(let n=0,o=r.length;n&lt;o;++n){let o=r[n].children;for(let r=0,i=o.length;r&lt;i;++r){let i=r;0!==t&amp;&amp;++i;let h,d=o[r].getAttribute(&quot;path&quot;),c=&quot;l&quot;;null!=d&amp;&amp;(c=(h=d.match(/\s*([lLcC])\s*(.*)/))[1]);let u=l(h[2]);switch(c){case&quot;l&quot;:0===i?(e[3*t][3*n+3]=u[0].add(e[3*t][3*n]),e[3*t][3*n+1]=a(e[3*t][3*n],e[3*t][3*n+3]),e[3*t][3*n+2]=a(e[3*t][3*n+3],e[3*t][3*n])):1===i?(e[3*t+3][3*n+3]=u[0].add(e[3*t][3*n+3]),e[3*t+1][3*n+3]=a(e[3*t][3*n+3],e[3*t+3][3*n+3]),e[3*t+2][3*n+3]=a(e[3*t+3][3*n+3],e[3*t][3*n+3])):2===i?(0===n&amp;&amp;(e[3*t+3][3*n+0]=u[0].add(e[3*t+3][3*n+3])),e[3*t+3][3*n+1]=a(e[3*t+3][3*n],e[3*t+3][3*n+3]),e[3*t+3][3*n+2]=a(e[3*t+3][3*n+3],e[3*t+3][3*n])):(e[3*t+1][3*n]=a(e[3*t][3*n],e[3*t+3][3*n]),e[3*t+2][3*n]=a(e[3*t+3][3*n],e[3*t][3*n]));break;case&quot;L&quot;:0===i?(e[3*t][3*n+3]=u[0],e[3*t][3*n+1]=a(e[3*t][3*n],e[3*t][3*n+3]),e[3*t][3*n+2]=a(e[3*t][3*n+3],e[3*t][3*n])):1===i?(e[3*t+3][3*n+3]=u[0],e[3*t+1][3*n+3]=a(e[3*t][3*n+3],e[3*t+3][3*n+3]),e[3*t+2][3*n+3]=a(e[3*t+3][3*n+3],e[3*t][3*n+3])):2===i?(0===n&amp;&amp;(e[3*t+3][3*n+0]=u[0]),e[3*t+3][3*n+1]=a(e[3*t+3][3*n],e[3*t+3][3*n+3]),e[3*t+3][3*n+2]=a(e[3*t+3][3*n+3],e[3*t+3][3*n])):(e[3*t+1][3*n]=a(e[3*t][3*n],e[3*t+3][3*n]),e[3*t+2][3*n]=a(e[3*t+3][3*n],e[3*t][3*n]));break;case&quot;c&quot;:0===i?(e[3*t][3*n+1]=u[0].add(e[3*t][3*n]),e[3*t][3*n+2]=u[1].add(e[3*t][3*n]),e[3*t][3*n+3]=u[2].add(e[3*t][3*n])):1===i?(e[3*t+1][3*n+3]=u[0].add(e[3*t][3*n+3]),e[3*t+2][3*n+3]=u[1].add(e[3*t][3*n+3]),e[3*t+3][3*n+3]=u[2].add(e[3*t][3*n+3])):2===i?(e[3*t+3][3*n+2]=u[0].add(e[3*t+3][3*n+3]),e[3*t+3][3*n+1]=u[1].add(e[3*t+3][3*n+3]),0===n&amp;&amp;(e[3*t+3][3*n+0]=u[2].add(e[3*t+3][3*n+3]))):(e[3*t+2][3*n]=u[0].add(e[3*t+3][3*n]),e[3*t+1][3*n]=u[1].add(e[3*t+3][3*n]));break;case&quot;C&quot;:0===i?(e[3*t][3*n+1]=u[0],e[3*t][3*n+2]=u[1],e[3*t][3*n+3]=u[2]):1===i?(e[3*t+1][3*n+3]=u[0],e[3*t+2][3*n+3]=u[1],e[3*t+3][3*n+3]=u[2]):2===i?(e[3*t+3][3*n+2]=u[0],e[3*t+3][3*n+1]=u[1],0===n&amp;&amp;(e[3*t+3][3*n+0]=u[2])):(e[3*t+2][3*n]=u[0],e[3*t+1][3*n]=u[1]);break;default:console.error(&quot;mesh.js: &quot;+c+&quot; invalid path type.&quot;)}if(0===t&amp;&amp;0===n||r&gt;0){let e=window.getComputedStyle(o[r]).stopColor.match(/^rgb\s*\(\s*(\d+)\s*,\s*(\d+)\s*,\s*(\d+)\s*\)$/i),a=window.getComputedStyle(o[r]).stopOpacity,h=255;a&amp;&amp;(h=Math.floor(255*a)),e&amp;&amp;(0===i?(s[t][n]=[],s[t][n][0]=Math.floor(e[1]),s[t][n][1]=Math.floor(e[2]),s[t][n][2]=Math.floor(e[3]),s[t][n][3]=h):1===i?(s[t][n+1]=[],s[t][n+1][0]=Math.floor(e[1]),s[t][n+1][1]=Math.floor(e[2]),s[t][n+1][2]=Math.floor(e[3]),s[t][n+1][3]=h):2===i?(s[t+1][n+1]=[],s[t+1][n+1][0]=Math.floor(e[1]),s[t+1][n+1][1]=Math.floor(e[2]),s[t+1][n+1][2]=Math.floor(e[3]),s[t+1][n+1][3]=h):3===i&amp;&amp;(s[t+1][n]=[],s[t+1][n][0]=Math.floor(e[1]),s[t+1][n][1]=Math.floor(e[2]),s[t+1][n][2]=Math.floor(e[3]),s[t+1][n][3]=h))}}e[3*t+1][3*n+1]=new x,e[3*t+1][3*n+2]=new x,e[3*t+2][3*n+1]=new x,e[3*t+2][3*n+2]=new x,e[3*t+1][3*n+1].x=(-4*e[3*t][3*n].x+6*(e[3*t][3*n+1].x+e[3*t+1][3*n].x)+-2*(e[3*t][3*n+3].x+e[3*t+3][3*n].x)+3*(e[3*t+3][3*n+1].x+e[3*t+1][3*n+3].x)+-1*e[3*t+3][3*n+3].x)/9,e[3*t+1][3*n+2].x=(-4*e[3*t][3*n+3].x+6*(e[3*t][3*n+2].x+e[3*t+1][3*n+3].x)+-2*(e[3*t][3*n].x+e[3*t+3][3*n+3].x)+3*(e[3*t+3][3*n+2].x+e[3*t+1][3*n].x)+-1*e[3*t+3][3*n].x)/9,e[3*t+2][3*n+1].x=(-4*e[3*t+3][3*n].x+6*(e[3*t+3][3*n+1].x+e[3*t+2][3*n].x)+-2*(e[3*t+3][3*n+3].x+e[3*t][3*n].x)+3*(e[3*t][3*n+1].x+e[3*t+2][3*n+3].x)+-1*e[3*t][3*n+3].x)/9,e[3*t+2][3*n+2].x=(-4*e[3*t+3][3*n+3].x+6*(e[3*t+3][3*n+2].x+e[3*t+2][3*n+3].x)+-2*(e[3*t+3][3*n].x+e[3*t][3*n+3].x)+3*(e[3*t][3*n+2].x+e[3*t+2][3*n].x)+-1*e[3*t][3*n].x)/9,e[3*t+1][3*n+1].y=(-4*e[3*t][3*n].y+6*(e[3*t][3*n+1].y+e[3*t+1][3*n].y)+-2*(e[3*t][3*n+3].y+e[3*t+3][3*n].y)+3*(e[3*t+3][3*n+1].y+e[3*t+1][3*n+3].y)+-1*e[3*t+3][3*n+3].y)/9,e[3*t+1][3*n+2].y=(-4*e[3*t][3*n+3].y+6*(e[3*t][3*n+2].y+e[3*t+1][3*n+3].y)+-2*(e[3*t][3*n].y+e[3*t+3][3*n+3].y)+3*(e[3*t+3][3*n+2].y+e[3*t+1][3*n].y)+-1*e[3*t+3][3*n].y)/9,e[3*t+2][3*n+1].y=(-4*e[3*t+3][3*n].y+6*(e[3*t+3][3*n+1].y+e[3*t+2][3*n].y)+-2*(e[3*t+3][3*n+3].y+e[3*t][3*n].y)+3*(e[3*t][3*n+1].y+e[3*t+2][3*n+3].y)+-1*e[3*t][3*n+3].y)/9,e[3*t+2][3*n+2].y=(-4*e[3*t+3][3*n+3].y+6*(e[3*t+3][3*n+2].y+e[3*t+2][3*n+3].y)+-2*(e[3*t+3][3*n].y+e[3*t][3*n+3].y)+3*(e[3*t][3*n+2].y+e[3*t+2][3*n].y)+-1*e[3*t][3*n].y)/9}}this.nodes=e,this.colors=s}paintMesh(t,e){let s=(this.nodes.length-1)/3,r=(this.nodes[0].length-1)/3;if(&quot;bilinear&quot;===this.type||s&lt;2||r&lt;2){let n;for(let o=0;o&lt;s;++o)for(let s=0;s&lt;r;++s){let r=[];for(let t=3*o,e=3*o+4;t&lt;e;++t)r.push(this.nodes[t].slice(3*s,3*s+4));let i=[];i.push(this.colors[o].slice(s,s+2)),i.push(this.colors[o+1].slice(s,s+2)),(n=new m(r,i)).paint(t,e)}}else{let n,o,a,h,l,d,u;const x=s,g=r;s++,r++;let w=new Array(s);for(let t=0;t&lt;s;++t){w[t]=new Array(r);for(let e=0;e&lt;r;++e)w[t][e]=[],w[t][e][0]=this.nodes[3*t][3*e],w[t][e][1]=this.colors[t][e]}for(let t=0;t&lt;s;++t)for(let e=0;e&lt;r;++e)0!==t&amp;&amp;t!==x&amp;&amp;(n=i(w[t-1][e][0],w[t][e][0]),o=i(w[t+1][e][0],w[t][e][0]),w[t][e][2]=c(w[t-1][e][1],w[t][e][1],w[t+1][e][1],n,o)),0!==e&amp;&amp;e!==g&amp;&amp;(n=i(w[t][e-1][0],w[t][e][0]),o=i(w[t][e+1][0],w[t][e][0]),w[t][e][3]=c(w[t][e-1][1],w[t][e][1],w[t][e+1][1],n,o));for(let t=0;t&lt;r;++t){w[0][t][2]=[],w[x][t][2]=[];for(let e=0;e&lt;4;++e)n=i(w[1][t][0],w[0][t][0]),o=i(w[x][t][0],w[x-1][t][0]),w[0][t][2][e]=n&gt;0?2*(w[1][t][1][e]-w[0][t][1][e])/n-w[1][t][2][e]:0,w[x][t][2][e]=o&gt;0?2*(w[x][t][1][e]-w[x-1][t][1][e])/o-w[x-1][t][2][e]:0}for(let t=0;t&lt;s;++t){w[t][0][3]=[],w[t][g][3]=[];for(let e=0;e&lt;4;++e)n=i(w[t][1][0],w[t][0][0]),o=i(w[t][g][0],w[t][g-1][0]),w[t][0][3][e]=n&gt;0?2*(w[t][1][1][e]-w[t][0][1][e])/n-w[t][1][3][e]:0,w[t][g][3][e]=o&gt;0?2*(w[t][g][1][e]-w[t][g-1][1][e])/o-w[t][g-1][3][e]:0}for(let s=0;s&lt;x;++s)for(let r=0;r&lt;g;++r){let n=i(w[s][r][0],w[s+1][r][0]),o=i(w[s][r+1][0],w[s+1][r+1][0]),c=i(w[s][r][0],w[s][r+1][0]),x=i(w[s+1][r][0],w[s+1][r+1][0]),g=[[],[],[],[]];for(let t=0;t&lt;4;++t){(d=[])[0]=w[s][r][1][t],d[1]=w[s+1][r][1][t],d[2]=w[s][r+1][1][t],d[3]=w[s+1][r+1][1][t],d[4]=w[s][r][2][t]*n,d[5]=w[s+1][r][2][t]*n,d[6]=w[s][r+1][2][t]*o,d[7]=w[s+1][r+1][2][t]*o,d[8]=w[s][r][3][t]*c,d[9]=w[s+1][r][3][t]*x,d[10]=w[s][r+1][3][t]*c,d[11]=w[s+1][r+1][3][t]*x,d[12]=0,d[13]=0,d[14]=0,d[15]=0,u=f(d);for(let e=0;e&lt;9;++e){g[t][e]=[];for(let s=0;s&lt;9;++s)g[t][e][s]=p(u,e/8,s/8),g[t][e][s]&gt;255?g[t][e][s]=255:g[t][e][s]&lt;0&amp;&amp;(g[t][e][s]=0)}}h=[];for(let t=3*s,e=3*s+4;t&lt;e;++t)h.push(this.nodes[t].slice(3*r,3*r+4));l=y(h);for(let s=0;s&lt;8;++s)for(let r=0;r&lt;8;++r)(a=new m(l[s][r],[[[g[0][s][r],g[1][s][r],g[2][s][r],g[3][s][r]],[g[0][s][r+1],g[1][s][r+1],g[2][s][r+1],g[3][s][r+1]]],[[g[0][s+1][r],g[1][s+1][r],g[2][s+1][r],g[3][s+1][r]],[g[0][s+1][r+1],g[1][s+1][r+1],g[2][s+1][r+1],g[3][s+1][r+1]]]])).paint(t,e)}}}transform(t){if(t instanceof x)for(let e=0,s=this.nodes.length;e&lt;s;++e)for(let s=0,r=this.nodes[0].length;s&lt;r;++s)this.nodes[e][s]=this.nodes[e][s].add(t);else if(t instanceof g)for(let e=0,s=this.nodes.length;e&lt;s;++e)for(let s=0,r=this.nodes[0].length;s&lt;r;++s)this.nodes[e][s]=this.nodes[e][s].transform(t)}scale(t){for(let e=0,s=this.nodes.length;e&lt;s;++e)for(let s=0,r=this.nodes[0].length;s&lt;r;++s)this.nodes[e][s]=this.nodes[e][s].scale(t)}}document.querySelectorAll(&quot;rect,circle,ellipse,path,text&quot;).forEach((r,n)=&gt;{let o=r.getAttribute(&quot;id&quot;);o||(o=&quot;patchjs_shape&quot;+n,r.setAttribute(&quot;id&quot;,o));const i=r.style.fill.match(/^url\(\s*&quot;?\s*#([^\s&quot;]+)&quot;?\s*\)/),a=r.style.stroke.match(/^url\(\s*&quot;?\s*#([^\s&quot;]+)&quot;?\s*\)/);if(i&amp;&amp;i[1]){const a=document.getElementById(i[1]);if(a&amp;&amp;&quot;meshgradient&quot;===a.nodeName){const i=r.getBBox();let l=document.createElementNS(s,&quot;canvas&quot;);d(l,{width:i.width,height:i.height});const c=l.getContext(&quot;2d&quot;);let u=c.createImageData(i.width,i.height);const f=new b(a);&quot;objectBoundingBox&quot;===a.getAttribute(&quot;gradientUnits&quot;)&amp;&amp;f.scale(new x(i.width,i.height));const p=a.getAttribute(&quot;gradientTransform&quot;);null!=p&amp;&amp;f.transform(h(p)),&quot;userSpaceOnUse&quot;===a.getAttribute(&quot;gradientUnits&quot;)&amp;&amp;f.transform(new x(-i.x,-i.y)),f.paintMesh(u.data,l.width),c.putImageData(u,0,0);const y=document.createElementNS(t,&quot;image&quot;);d(y,{width:i.width,height:i.height,x:i.x,y:i.y});let g=l.toDataURL();y.setAttributeNS(e,&quot;xlink:href&quot;,g),r.parentNode.insertBefore(y,r),r.style.fill=&quot;none&quot;;const w=document.createElementNS(t,&quot;use&quot;);w.setAttributeNS(e,&quot;xlink:href&quot;,&quot;#&quot;+o);const m=&quot;patchjs_clip&quot;+n,M=document.createElementNS(t,&quot;clipPath&quot;);M.setAttribute(&quot;id&quot;,m),M.appendChild(w),r.parentElement.insertBefore(M,r),y.setAttribute(&quot;clip-path&quot;,&quot;url(#&quot;+m+&quot;)&quot;),u=null,l=null,g=null}}if(a&amp;&amp;a[1]){const o=document.getElementById(a[1]);if(o&amp;&amp;&quot;meshgradient&quot;===o.nodeName){const i=parseFloat(r.style.strokeWidth.slice(0,-2))*(parseFloat(r.style.strokeMiterlimit)||parseFloat(r.getAttribute(&quot;stroke-miterlimit&quot;))||1),a=r.getBBox(),l=Math.trunc(a.width+i),c=Math.trunc(a.height+i),u=Math.trunc(a.x-i/2),f=Math.trunc(a.y-i/2);let p=document.createElementNS(s,&quot;canvas&quot;);d(p,{width:l,height:c});const y=p.getContext(&quot;2d&quot;);let g=y.createImageData(l,c);const w=new b(o);&quot;objectBoundingBox&quot;===o.getAttribute(&quot;gradientUnits&quot;)&amp;&amp;w.scale(new x(l,c));const m=o.getAttribute(&quot;gradientTransform&quot;);null!=m&amp;&amp;w.transform(h(m)),&quot;userSpaceOnUse&quot;===o.getAttribute(&quot;gradientUnits&quot;)&amp;&amp;w.transform(new x(-u,-f)),w.paintMesh(g.data,p.width),y.putImageData(g,0,0);const M=document.createElementNS(t,&quot;image&quot;);d(M,{width:l,height:c,x:0,y:0});let S=p.toDataURL();M.setAttributeNS(e,&quot;xlink:href&quot;,S);const k=&quot;pattern_clip&quot;+n,A=document.createElementNS(t,&quot;pattern&quot;);d(A,{id:k,patternUnits:&quot;userSpaceOnUse&quot;,width:l,height:c,x:u,y:f}),A.appendChild(M),o.parentNode.appendChild(A),r.style.stroke=&quot;url(#&quot;+k+&quot;)&quot;,g=null,p=null,S=null}}})}();
</script>
</svg>
